<svg xmlns="http://www.w3.org/2000/svg" version="1.1" xmlns:xlink="http://www.w3.org/1999/xlink" xmlns:svgjs="http://svgjs.dev/svgjs" width="1000" height="179" viewBox="0 0 1000 179"><g transform="matrix(1,0,0,1,-0.6058652648737848,0.09601141386427514)"><svg viewBox="0 0 396 71" data-background-color="#f9f9f9" preserveAspectRatio="xMidYMid meet" height="179" width="1000" xmlns="http://www.w3.org/2000/svg" xmlns:xlink="http://www.w3.org/1999/xlink"><defs></defs><g id="tight-bounds" transform="matrix(1,0,0,1,0.24007735511008832,-0.038082739577447455)"><svg viewBox="0 0 395.52 71.0761654791549" height="71.0761654791549" width="395.52"><g><svg viewBox="0 0 545.9769167521449 98.11373807361001" height="71.0761654791549" width="395.52"><g><rect width="4.066812293405469" height="98.11373807361001" x="135.74399897862037" y="0" fill="#030303" opacity="1" stroke-width="0" stroke="transparent" fill-opacity="1" class="rect-o-0" data-fill-palette-color="primary" rx="1%" id="o-0" data-palette-color="#030303"></rect></g><g transform="matrix(1,0,0,1,150.45691675214485,0.24406402505872649)"><svg viewBox="0 0 395.52 97.62561002349256" height="97.62561002349256" width="395.52"><g><svg viewBox="0 0 395.52 97.62561002349256" height="97.62561002349256" width="395.52"><g><svg viewBox="0 0 395.52 97.62561002349256" height="97.62561002349256" width="395.52"><g transform="matrix(1,0,0,1,0,0)"><svg width="395.52" viewBox="2.5000035762786865 -35.400001525878906 319.25 75.30000305175781" height="97.62561002349256" data-palette-color="#030303"><svg></svg><svg></svg><g class="undefined-text-0" data-fill-palette-color="primary" id="text-0"><path d="M24.5 0h-20.5v-27.4l-1-5 1-3h17c3.767 0 6.783 0.7 9.05 2.1 2.267 1.4 3.4 3.667 3.4 6.8v0c0 1.567-0.267 2.983-0.8 4.25-0.533 1.267-1.3 2.25-2.3 2.95v0c2.267 0.733 3.933 1.85 5 3.35 1.067 1.5 1.6 3.283 1.6 5.35v0c0 3.633-1.06 6.307-3.18 8.02-2.113 1.72-5.203 2.58-9.27 2.58zM13-27.4v5.75h7.9c1.133 0 1.95-0.267 2.45-0.8 0.5-0.533 0.75-1.233 0.75-2.1v0c0-1.1-0.367-1.85-1.1-2.25-0.733-0.4-1.6-0.6-2.6-0.6v0zM13-14.2v6.2h10c1.2 0 2.093-0.15 2.68-0.45 0.58-0.3 0.963-0.683 1.15-1.15 0.18-0.467 0.27-0.95 0.27-1.45v0c0-0.867-0.307-1.61-0.92-2.23-0.62-0.613-1.513-0.92-2.68-0.92v0zM69.4 0h-26.95l-1-3 1-5v-27.4h24.75l2.5 1.5-3.3 7-4.5-0.5h-10.45v5.5h13.45v7.75h-5.9l-7.55-0.5v6.65h14.95l5.95 4.8zM103.8 0h-26.95l-1-3 1-5v-27.4h24.75l2.5 1.5-3.3 7-4.5-0.5h-10.45v5.5h13.45v7.75h-5.9l-7.55-0.5v6.65h14.95l5.95 4.8zM120.85 0h-9.6v-27.35l-1-5 1.05-3h9.55l9.8 19h1l8.1-19h9.95l0.5 3-0.5 4.8v27.55h-9.05l0.15-4.25v-13.95h-0.55l-2 4.8-4.5 8.4h-6l-6.9-13.2h-0.5v4.05zM166.8 0h-9.6v-27.35l-1-5 1-3h8.05l10.1 13.6 2.4 4.15h0.5v-17.75h9.45v3l-0.5 5v27.35h-7.85l-12.55-17.6h-0.5v3zM221.65 0h-26.95l-1-3 1-5v-27.4h24.75l2.5 1.5-3.3 7-4.5-0.5h-10.45v5.5h13.45v7.75h-5.9l-7.55-0.5v6.65h14.95l5.95 4.8zM245.1 0h-9v-27.4l-10 0.5v-8.5h29.25v8.5l-10.25-0.5v19.4l0.55 5z" data-fill-palette-color="primary" fill="#030303" opacity="1"></path><path d="M15.5 39.9v0c-1.833 0-3.567-0.177-5.2-0.53-1.633-0.347-3.05-0.77-4.25-1.27-1.2-0.5-2.083-0.967-2.65-1.4v0-8.95c1.6 0.9 3.617 1.74 6.05 2.52 2.433 0.787 5.133 1.18 8.1 1.18v0c1.2 0 2.093-0.16 2.68-0.48 0.58-0.313 0.87-0.87 0.87-1.67v0c0-0.867-0.657-1.593-1.97-2.18-1.32-0.58-3.397-1.303-6.23-2.17v0c-2.2-0.7-4.073-1.477-5.62-2.33-1.553-0.847-2.737-1.913-3.55-3.2-0.82-1.28-1.23-2.92-1.23-4.92v0c0-2.067 0.533-3.933 1.6-5.6 1.067-1.667 2.733-2.983 5-3.95 2.267-0.967 5.167-1.45 8.7-1.45v0c1.067 0 2.21 0.043 3.43 0.13 1.213 0.08 2.187 0.187 2.92 0.32v0l5.65 4.15-1.95 6.1-11.85-3.25c-1.367 0-2.373 0.283-3.02 0.85-0.653 0.567-0.98 1.25-0.98 2.05v0c0 0.967 0.55 1.733 1.65 2.3 1.1 0.567 2.683 1.133 4.75 1.7v0c3.267 0.9 5.8 1.9 7.6 3 1.8 1.1 3.067 2.34 3.8 3.72 0.733 1.387 1.1 2.947 1.1 4.68v0c0 3.2-1.283 5.773-3.85 7.72-2.567 1.953-6.417 2.93-11.55 2.93zM52.9 39.4h-9v-27.4l-10 0.5v-8.5h29.25v8.5l-10.25-0.5v19.4l0.55 5zM70.75 39.4h-9.4l2.4-8.45v-6.35l3.7-1.5 6.5-19.05h12.95l8.05 22.4 3.85 7.1v5.85h-8.85l-2.5-8h-14.55zM79.85 12.25l-3.65 11.45h8.5l-3.8-11.45zM116.3 39.4h-9v-27.4l-10 0.5v-8.5h29.25v8.5l-10.25-0.5v19.4l0.55 5zM140.1 39.4h-9.05v-27.4l-0.5-5 0.5-3h9.05zM162.05 39.9v0c-2.133 0-4.207-0.26-6.22-0.78-2.02-0.513-3.837-1.437-5.45-2.77-1.62-1.333-2.903-3.183-3.85-5.55-0.953-2.367-1.43-5.4-1.43-9.1v0c0-3.7 0.477-6.733 1.43-9.1 0.947-2.367 2.23-4.217 3.85-5.55 1.613-1.333 3.43-2.26 5.45-2.78 2.013-0.513 4.087-0.77 6.22-0.77v0c2.133 0 4.21 0.267 6.23 0.8 2.013 0.533 3.83 1.467 5.45 2.8 1.613 1.333 2.897 3.183 3.85 5.55 0.947 2.367 1.42 5.383 1.42 9.05v0c0 3.667-0.473 6.683-1.42 9.05-0.953 2.367-2.237 4.217-3.85 5.55-1.62 1.333-3.437 2.267-5.45 2.8-2.02 0.533-4.097 0.8-6.23 0.8zM162.05 31.4v0c2.467 0 4.333-0.733 5.6-2.2 1.267-1.467 1.9-3.967 1.9-7.5v0c0-3.533-0.633-6.033-1.9-7.5-1.267-1.467-3.133-2.2-5.6-2.2v0c-2.433 0-4.283 0.75-5.55 2.25-1.267 1.5-1.9 3.983-1.9 7.45v0c0 3.467 0.633 5.95 1.9 7.45 1.267 1.5 3.117 2.25 5.55 2.25zM194.6 39.4h-9.6v-27.35l-1-5 1-3h8.05l10.1 13.6 2.4 4.15h0.5v-17.75h9.45v3l-0.5 5v27.35h-7.85l-12.55-17.6h-0.5v3zM249.45 39.4h-26.95l-1-3 1-5v-27.4h24.75l2.5 1.5-3.3 7-4.5-0.5h-10.45v5.5h13.45v7.75h-5.9l-7.55-0.5v6.65h14.95l5.95 4.8zM265.9 39.4h-9v-27.35l-1-5.05 1-3h16c2.433 0 4.627 0.377 6.58 1.13 1.947 0.747 3.497 2.01 4.65 3.79 1.147 1.787 1.72 4.247 1.72 7.38v0c0 2.833-0.517 5.123-1.55 6.87-1.033 1.753-2.467 3.063-4.3 3.93v0l0.5 0.55 4.95 6.2 2.85 2.55v3h-11.25l-7-10.65h-4.15v2.6l0.5 5zM265.4 12l0.5 8.9h4.9c1.733 0 3.117-0.327 4.15-0.98 1.033-0.647 1.55-1.853 1.55-3.62v0c0-1.233-0.25-2.16-0.75-2.78-0.5-0.613-1.19-1.02-2.07-1.22-0.887-0.2-1.913-0.3-3.08-0.3v0zM309.3 39.4h-9.1v-15l-12.4-17.4v-3h10.5l6 11.3h1l5.95-11.3h10.5v3l-12.75 17.7 0.3 5.05z" data-fill-palette-color="primary" fill="#030303" opacity="1"></path></g></svg></g></svg></g></svg></g></svg></g><g transform="matrix(1,0,0,1,0,0.24406402505871938)"><svg viewBox="0 0 125.09789349850134 97.62561002349257" height="97.62561002349257" width="125.09789349850134"><g><svg xmlns="http://www.w3.org/2000/svg" xmlns:xlink="http://www.w3.org/1999/xlink" xml:space="preserve" style="shape-rendering:geometricPrecision;text-rendering:geometricPrecision;image-rendering:optimizeQuality;" viewBox="20.312101364135742 26.831396102905273 59.37580108642578 46.33650207519531" x="0" y="0" fill-rule="evenodd" clip-rule="evenodd" height="97.62561002349257" width="125.09789349850134" class="icon-icon-0" data-fill-palette-color="accent" id="icon-0"><g fill="#030303" data-fill-palette-color="accent"><path class="" d="M74.935 32.177l-30.824-4.254-22.079 33.901 3.574 0.493 27.252 3.76 19.851-30.481 2.226-3.419z m-49.148 31.188l-2.784 4.275 32.154 4.437 22.811-35.027-4.586-0.632-19.851 30.481-0.175 0.269-0.317-0.043-27.252-3.76z m48.206-27.886l4.902 0.677 0.793 0.109-0.435 0.669-23.422 35.964-0.176 0.27-0.316-0.044-33.263-4.589-0.793-0.11 0.435-0.668 2.96-4.545-3.573-0.494-0.793-0.109 0.435-0.668 22.69-34.84 0.176-0.27 0.316 0.044 31.934 4.407 0.792 0.109-0.435 0.669-2.227 3.419z" fill="#030303" fill-rule="nonzero" data-fill-palette-color="accent"></path></g></svg></g></svg></g></svg></g></svg><rect width="395.52" height="71.0761654791549" fill="none" stroke="none" visibility="hidden"></rect></g></svg></g></svg>